<svg xmlns="http://www.w3.org/2000/svg" width="1920" height="1080"><path d="M323,1320L-228,1344L612,1333Z" fill="#be874c" stroke="#be874c" stroke-width="1.51"/><path d="M895,1346L612,1333L1083,1369Z" fill="#b8661c" stroke="#b8661c" stroke-width="1.51"/><path d="M612,1333L-228,1344L1083,1369Z" fill="#ba7b37" stroke="#ba7b37" stroke-width="1.51"/><path d="M-286,-241L494,-246L1142,-302Z" fill="#ffe8a6" stroke="#ffe8a6" stroke-width="1.51"/><path d="M1142,-302L1446,-268L1695,-271Z" fill="#f9b076" stroke="#f9b076" stroke-width="1.51"/><path d="M1568,1280L1219,1327L1765,1294Z" fill="#ab4107" stroke="#ab4107" stroke-width="1.51"/><path d="M1219,1327L1083,1369L1765,1294Z" fill="#ae490b" stroke="#ae490b" stroke-width="1.51"/><path d="M1765,1294L1083,1369L1954,1302Z" fill="#a43d06" stroke="#a43d06" stroke-width="1.51"/><path d="M1954,1302L1083,1369L2080,1308Z" fill="#9c3805" stroke="#9c3805" stroke-width="1.51"/><path d="M2096,147L1930,271L2096,482Z" fill="#c57b2b" stroke="#c57b2b" stroke-width="1.51"/><path d="M1695,-271L2013,-184L2129,-198Z" fill="#d49766" stroke="#d49766" stroke-width="1.51"/><path d="M2086,866L2030,1023L2153,1181Z" fill="#a23a05" stroke="#a23a05" stroke-width="1.51"/><path d="M2037,793L2086,866L2183,587Z" fill="#b64f0d" stroke="#b64f0d" stroke-width="1.51"/><path d="M2096,147L2096,482L2183,587Z" fill="#bd6f22" stroke="#bd6f22" stroke-width="1.51"/><path d="M2086,866L2153,1181L2183,587Z" fill="#aa4308" stroke="#aa4308" stroke-width="1.51"/><path d="M2129,-198L2013,-184L2256,-14Z" fill="#c28f5d" stroke="#c28f5d" stroke-width="1.51"/><path d="M2013,-184L2096,147L2256,-14Z" fill="#c28b53" stroke="#c28b53" stroke-width="1.51"/><path d="M2096,147L2183,587L2256,-14Z" fill="#ba7a35" stroke="#ba7a35" stroke-width="1.51"/><path d="M2183,587L2153,1181L2256,-14Z" fill="#b45b15" stroke="#b45b15" stroke-width="1.51"/><path d="M2013,-184L1892,-19L2096,147Z" fill="#cc8f54" stroke="#cc8f54" stroke-width="1.51"/><path d="M1930,271L1959,455L2096,482Z" fill="#c87322" stroke="#c87322" stroke-width="1.51"/><path d="M2096,482L1997,740L2183,587Z" fill="#bd5c13" stroke="#bd5c13" stroke-width="1.51"/><path d="M1997,740L2037,793L2183,587Z" fill="#ba530f" stroke="#ba530f" stroke-width="1.51"/><path d="M1954,1302L2080,1308L2153,1181Z" fill="#882f06" stroke="#882f06" stroke-width="1.51"/><path d="M2030,1023L1954,1302L2153,1181Z" fill="#953305" stroke="#953305" stroke-width="1.51"/><path d="M1959,455L1997,740L2096,482Z" fill="#c46315" stroke="#c46315" stroke-width="1.51"/><path d="M1892,-19L1930,271L2096,147Z" fill="#cc8844" stroke="#cc8844" stroke-width="1.51"/><path d="M2037,793L2030,1023L2086,866Z" fill="#b04407" stroke="#b04407" stroke-width="1.51"/><path d="M1892,-19L1774,132L1930,271Z" fill="#d68d47" stroke="#d68d47" stroke-width="1.51"/><path d="M1959,455L1815,464L1997,740Z" fill="#cc6615" stroke="#cc6615" stroke-width="1.51"/><path d="M1815,464L1695,620L1997,740Z" fill="#d16513" stroke="#d16513" stroke-width="1.51"/><path d="M1765,1294L1954,1302L2030,1023Z" fill="#9a3504" stroke="#9a3504" stroke-width="1.51"/><path d="M1652,1170L1765,1294L2030,1023Z" fill="#a73b04" stroke="#a73b04" stroke-width="1.51"/><path d="M1650,834L2030,1023L2037,793Z" fill="#bd4906" stroke="#bd4906" stroke-width="1.51"/><path d="M1997,740L1650,834L2037,793Z" fill="#c4510a" stroke="#c4510a" stroke-width="1.51"/><path d="M1650,834L1652,1170L2030,1023Z" fill="#bc4403" stroke="#bc4403" stroke-width="1.51"/><path d="M1792,-53L1892,-19L2013,-184Z" fill="#d6965b" stroke="#d6965b" stroke-width="1.51"/><path d="M1695,-271L1792,-53L2013,-184Z" fill="#dd9b64" stroke="#dd9b64" stroke-width="1.51"/><path d="M1695,620L1650,834L1997,740Z" fill="#d05b0c" stroke="#d05b0c" stroke-width="1.51"/><path d="M1930,271L1815,464L1959,455Z" fill="#d07622" stroke="#d07622" stroke-width="1.51"/><path d="M1774,132L1815,464L1930,271Z" fill="#d6832f" stroke="#d6832f" stroke-width="1.51"/><path d="M1792,-53L1774,132L1892,-19Z" fill="#db9453" stroke="#db9453" stroke-width="1.51"/><path d="M1650,834L1541,893L1652,1170Z" fill="#cd4e02" stroke="#cd4e02" stroke-width="1.51"/><path d="M1570,-90L1774,132L1792,-53Z" fill="#e59a56" stroke="#e59a56" stroke-width="1.51"/><path d="M1695,-271L1570,-90L1792,-53Z" fill="#e9a163" stroke="#e9a163" stroke-width="1.51"/><path d="M1459,481L1695,620L1815,464Z" fill="#e27417" stroke="#e27417" stroke-width="1.51"/><path d="M1774,132L1518,178L1815,464Z" fill="#e18b34" stroke="#e18b34" stroke-width="1.51"/><path d="M1518,178L1459,481L1815,464Z" fill="#e78626" stroke="#e78626" stroke-width="1.51"/><path d="M1570,-90L1518,178L1774,132Z" fill="#ea9a50" stroke="#ea9a50" stroke-width="1.51"/><path d="M1652,1170L1568,1280L1765,1294Z" fill="#a93d04" stroke="#a93d04" stroke-width="1.51"/><path d="M1541,893L1500,1146L1652,1170Z" fill="#c44a04" stroke="#c44a04" stroke-width="1.51"/><path d="M1446,-268L1570,-90L1695,-271Z" fill="#f1a76c" stroke="#f1a76c" stroke-width="1.51"/><path d="M1476,707L1650,834L1695,620Z" fill="#de630d" stroke="#de630d" stroke-width="1.51"/><path d="M1459,481L1476,707L1695,620Z" fill="#e67215" stroke="#e67215" stroke-width="1.51"/><path d="M1476,707L1541,893L1650,834Z" fill="#db5e0a" stroke="#db5e0a" stroke-width="1.51"/><path d="M1500,1146L1568,1280L1652,1170Z" fill="#b54204" stroke="#b54204" stroke-width="1.51"/><path d="M1253,381L1459,481L1518,178Z" fill="#f0922e" stroke="#f0922e" stroke-width="1.51"/><path d="M1237,278L1253,381L1518,178Z" fill="#f59c38" stroke="#f59c38" stroke-width="1.51"/><path d="M1378,923L1500,1146L1541,893Z" fill="#d25405" stroke="#d25405" stroke-width="1.51"/><path d="M1446,-268L1277,-198L1570,-90Z" fill="#f7ae6d" stroke="#f7ae6d" stroke-width="1.51"/><path d="M1277,-198L1321,20L1570,-90Z" fill="#f7ae65" stroke="#f7ae65" stroke-width="1.51"/><path d="M1321,20L1518,178L1570,-90Z" fill="#f3a458" stroke="#f3a458" stroke-width="1.51"/><path d="M1500,1146L1219,1327L1568,1280Z" fill="#b54908" stroke="#b54908" stroke-width="1.51"/><path d="M-286,-241L58,-191L494,-246Z" fill="#fff5bf" stroke="#fff5bf" stroke-width="1.51"/><path d="M1459,481L1377,699L1476,707Z" fill="#eb7517" stroke="#eb7517" stroke-width="1.51"/><path d="M1476,707L1378,923L1541,893Z" fill="#dd600c" stroke="#dd600c" stroke-width="1.51"/><path d="M1377,699L1378,923L1476,707Z" fill="#e56810" stroke="#e56810" stroke-width="1.51"/><path d="M1378,923L1236,1071L1500,1146Z" fill="#d05608" stroke="#d05608" stroke-width="1.51"/><path d="M1321,20L1237,278L1518,178Z" fill="#f5a34b" stroke="#f5a34b" stroke-width="1.51"/><path d="M1236,1071L1219,1327L1500,1146Z" fill="#c2510a" stroke="#c2510a" stroke-width="1.51"/><path d="M1142,-302L1277,-198L1446,-268Z" fill="#feb777" stroke="#feb777" stroke-width="1.51"/><path d="M1156,497L1377,699L1459,481Z" fill="#f3811d" stroke="#f3811d" stroke-width="1.51"/><path d="M1253,381L1156,497L1459,481Z" fill="#f68e27" stroke="#f68e27" stroke-width="1.51"/><path d="M1156,497L1162,722L1377,699Z" fill="#f37f1c" stroke="#f37f1c" stroke-width="1.51"/><path d="M1112,940L1236,1071L1378,923Z" fill="#de610c" stroke="#de610c" stroke-width="1.51"/><path d="M1377,699L1162,722L1378,923Z" fill="#e96e13" stroke="#e96e13" stroke-width="1.51"/><path d="M1162,722L1112,940L1378,923Z" fill="#e76d12" stroke="#e76d12" stroke-width="1.51"/><path d="M1066,208L1237,278L1321,20Z" fill="#fbaa4d" stroke="#fbaa4d" stroke-width="1.51"/><path d="M1027,10L1066,208L1321,20Z" fill="#fdb55c" stroke="#fdb55c" stroke-width="1.51"/><path d="M1277,-198L1027,10L1321,20Z" fill="#feb667" stroke="#feb667" stroke-width="1.51"/><path d="M990,1070L1219,1327L1236,1071Z" fill="#cb5d10" stroke="#cb5d10" stroke-width="1.51"/><path d="M1142,-302L1027,10L1277,-198Z" fill="#ffbe73" stroke="#ffbe73" stroke-width="1.51"/><path d="M494,-246L796,-140L1142,-302Z" fill="#ffd487" stroke="#ffd487" stroke-width="1.51"/><path d="M990,1070L1083,1369L1219,1327Z" fill="#c05b11" stroke="#c05b11" stroke-width="1.51"/><path d="M1237,278L1066,208L1253,381Z" fill="#f9a33b" stroke="#f9a33b" stroke-width="1.51"/><path d="M1066,208L1156,497L1253,381Z" fill="#f99f33" stroke="#f99f33" stroke-width="1.51"/><path d="M1112,940L990,1070L1236,1071Z" fill="#db6711" stroke="#db6711" stroke-width="1.51"/><path d="M830,505L888,565L893,258Z" fill="#ffa937" stroke="#ffa937" stroke-width="1.51"/><path d="M990,1070L895,1346L1083,1369Z" fill="#c26215" stroke="#c26215" stroke-width="1.51"/><path d="M886,-68L1027,10L1142,-302Z" fill="#ffc573" stroke="#ffc573" stroke-width="1.51"/><path d="M1066,208L893,258L1156,497Z" fill="#fdaa3a" stroke="#fdaa3a" stroke-width="1.51"/><path d="M893,258L888,565L1156,497Z" fill="#fea232" stroke="#fea232" stroke-width="1.51"/><path d="M876,948L1112,940L1162,722Z" fill="#eb7617" stroke="#eb7617" stroke-width="1.51"/><path d="M888,565L876,948L1162,722Z" fill="#f5851f" stroke="#f5851f" stroke-width="1.51"/><path d="M1156,497L888,565L1162,722Z" fill="#f98e23" stroke="#f98e23" stroke-width="1.51"/><path d="M796,-140L886,-68L1142,-302Z" fill="#ffcb7b" stroke="#ffcb7b" stroke-width="1.51"/><path d="M876,948L939,1022L1112,940Z" fill="#e57316" stroke="#e57316" stroke-width="1.51"/><path d="M939,1022L990,1070L1112,940Z" fill="#e06e14" stroke="#e06e14" stroke-width="1.51"/><path d="M494,-246L667,-147L796,-140Z" fill="#ffdd8b" stroke="#ffdd8b" stroke-width="1.51"/><path d="M1027,10L893,258L1066,208Z" fill="#ffb856" stroke="#ffb856" stroke-width="1.51"/><path d="M698,682L876,948L888,565Z" fill="#f79029" stroke="#f79029" stroke-width="1.51"/><path d="M886,-68L893,258L1027,10Z" fill="#ffc164" stroke="#ffc164" stroke-width="1.51"/><path d="M886,-68L662,144L893,258Z" fill="#ffc765" stroke="#ffc765" stroke-width="1.51"/><path d="M654,1022L895,1346L939,1022Z" fill="#d4731e" stroke="#d4731e" stroke-width="1.51"/><path d="M939,1022L895,1346L990,1070Z" fill="#d16b17" stroke="#d16b17" stroke-width="1.51"/><path d="M686,400L830,505L893,258Z" fill="#ffb340" stroke="#ffb340" stroke-width="1.51"/><path d="M654,1022L612,1333L895,1346Z" fill="#c87524" stroke="#c87524" stroke-width="1.51"/><path d="M876,948L654,1022L939,1022Z" fill="#e47c1f" stroke="#e47c1f" stroke-width="1.51"/><path d="M548,892L654,1022L698,682Z" fill="#ef932f" stroke="#ef932f" stroke-width="1.51"/><path d="M698,682L654,1022L876,948Z" fill="#ee8a27" stroke="#ee8a27" stroke-width="1.51"/><path d="M796,-140L662,144L886,-68Z" fill="#ffcf75" stroke="#ffcf75" stroke-width="1.51"/><path d="M830,505L698,682L888,565Z" fill="#fd9f30" stroke="#fd9f30" stroke-width="1.51"/><path d="M662,144L686,400L893,258Z" fill="#ffc051" stroke="#ffc051" stroke-width="1.51"/><path d="M667,-147L662,144L796,-140Z" fill="#ffd57b" stroke="#ffd57b" stroke-width="1.51"/><path d="M563,6L662,144L667,-147Z" fill="#ffd87b" stroke="#ffd87b" stroke-width="1.51"/><path d="M686,400L698,682L830,505Z" fill="#ffa937" stroke="#ffa937" stroke-width="1.51"/><path d="M426,1071L612,1333L654,1022Z" fill="#d48330" stroke="#d48330" stroke-width="1.51"/><path d="M662,144L502,341L686,400Z" fill="#fec755" stroke="#fec755" stroke-width="1.51"/><path d="M502,341L364,737L698,682Z" fill="#feaf47" stroke="#feaf47" stroke-width="1.51"/><path d="M364,737L434,778L698,682Z" fill="#f9a343" stroke="#f9a343" stroke-width="1.51"/><path d="M434,778L548,892L698,682Z" fill="#f69d3a" stroke="#f69d3a" stroke-width="1.51"/><path d="M686,400L502,341L698,682Z" fill="#ffb542" stroke="#ffb542" stroke-width="1.51"/><path d="M462,-102L563,6L667,-147Z" fill="#ffde89" stroke="#ffde89" stroke-width="1.51"/><path d="M494,-246L462,-102L667,-147Z" fill="#ffe293" stroke="#ffe293" stroke-width="1.51"/><path d="M563,6L341,125L662,144Z" fill="#ffd97c" stroke="#ffd97c" stroke-width="1.51"/><path d="M341,125L502,341L662,144Z" fill="#ffd26f" stroke="#ffd26f" stroke-width="1.51"/><path d="M548,892L426,1071L654,1022Z" fill="#e68d34" stroke="#e68d34" stroke-width="1.51"/><path d="M119,1259L-228,1344L323,1320Z" fill="#c38d57" stroke="#c38d57" stroke-width="1.51"/><path d="M426,1071L323,1320L612,1333Z" fill="#c9823b" stroke="#c9823b" stroke-width="1.51"/><path d="M197,453L364,737L502,341Z" fill="#ffbf5c" stroke="#ffbf5c" stroke-width="1.51"/><path d="M462,-102L341,125L563,6Z" fill="#ffdf8b" stroke="#ffdf8b" stroke-width="1.51"/><path d="M434,778L276,943L548,892Z" fill="#f19c45" stroke="#f19c45" stroke-width="1.51"/><path d="M276,943L426,1071L548,892Z" fill="#ea9542" stroke="#ea9542" stroke-width="1.51"/><path d="M58,-191L116,-147L494,-246Z" fill="#fff1b3" stroke="#fff1b3" stroke-width="1.51"/><path d="M341,125L197,453L502,341Z" fill="#ffd26e" stroke="#ffd26e" stroke-width="1.51"/><path d="M116,-147L462,-102L494,-246Z" fill="#ffeba5" stroke="#ffeba5" stroke-width="1.51"/><path d="M205,140L197,453L341,125Z" fill="#ffda80" stroke="#ffda80" stroke-width="1.51"/><path d="M230,1135L323,1320L426,1071Z" fill="#d28c47" stroke="#d28c47" stroke-width="1.51"/><path d="M112,-46L341,125L462,-102Z" fill="#ffe89b" stroke="#ffe89b" stroke-width="1.51"/><path d="M116,-147L112,-46L462,-102Z" fill="#ffeea9" stroke="#ffeea9" stroke-width="1.51"/><path d="M197,453L142,653L364,737Z" fill="#ffba61" stroke="#ffba61" stroke-width="1.51"/><path d="M364,737L276,943L434,778Z" fill="#f5a34e" stroke="#f5a34e" stroke-width="1.51"/><path d="M276,943L230,1135L426,1071Z" fill="#e2944b" stroke="#e2944b" stroke-width="1.51"/><path d="M112,-46L205,140L341,125Z" fill="#ffe699" stroke="#ffe699" stroke-width="1.51"/><path d="M142,653L276,943L364,737Z" fill="#f8aa57" stroke="#f8aa57" stroke-width="1.51"/><path d="M230,1135L119,1259L323,1320Z" fill="#cb8c4e" stroke="#cb8c4e" stroke-width="1.51"/><path d="M-80,1246L-228,1344L119,1259Z" fill="#c7915f" stroke="#c7915f" stroke-width="1.51"/><path d="M-48,289L197,453L205,140Z" fill="#ffdb81" stroke="#ffdb81" stroke-width="1.51"/><path d="M142,653L-51,799L276,943Z" fill="#f8ad60" stroke="#f8ad60" stroke-width="1.51"/><path d="M-51,799L-1,1044L276,943Z" fill="#f0a45e" stroke="#f0a45e" stroke-width="1.51"/><path d="M-1,1044L230,1135L276,943Z" fill="#e49954" stroke="#e49954" stroke-width="1.51"/><path d="M2,512L142,653L197,453Z" fill="#ffc46c" stroke="#ffc46c" stroke-width="1.51"/><path d="M-1,1044L119,1259L230,1135Z" fill="#d79456" stroke="#d79456" stroke-width="1.51"/><path d="M-48,289L2,512L197,453Z" fill="#ffd17a" stroke="#ffd17a" stroke-width="1.51"/><path d="M112,-46L15,-34L205,140Z" fill="#ffeca6" stroke="#ffeca6" stroke-width="1.51"/><path d="M15,-34L-48,289L205,140Z" fill="#ffe89d" stroke="#ffe89d" stroke-width="1.51"/><path d="M-1,1044L-80,1246L119,1259Z" fill="#d4955b" stroke="#d4955b" stroke-width="1.51"/><path d="M-27,650L-51,799L142,653Z" fill="#feb86a" stroke="#feb86a" stroke-width="1.51"/><path d="M2,512L-27,650L142,653Z" fill="#ffc06e" stroke="#ffc06e" stroke-width="1.51"/><path d="M15,-34L112,-46L116,-147Z" fill="#fff1b0" stroke="#fff1b0" stroke-width="1.51"/><path d="M58,-191L15,-34L116,-147Z" fill="#fff4b6" stroke="#fff4b6" stroke-width="1.51"/><path d="M-314,147L-48,289L15,-34Z" fill="#ffeba7" stroke="#ffeba7" stroke-width="1.51"/><path d="M-286,-241L15,-34L58,-191Z" fill="#fff8c2" stroke="#fff8c2" stroke-width="1.51"/><path d="M-51,799L-338,956L-1,1044Z" fill="#f2a86a" stroke="#f2a86a" stroke-width="1.51"/><path d="M-338,956L-288,1090L-1,1044Z" fill="#e9a16c" stroke="#e9a16c" stroke-width="1.51"/><path d="M-48,289L-189,398L2,512Z" fill="#ffd684" stroke="#ffd684" stroke-width="1.51"/><path d="M-286,-241L-342,28L15,-34Z" fill="#fff7c4" stroke="#fff7c4" stroke-width="1.51"/><path d="M-342,28L-314,147L15,-34Z" fill="#fff1b7" stroke="#fff1b7" stroke-width="1.51"/><path d="M-189,398L-204,710L-27,650Z" fill="#ffc67a" stroke="#ffc67a" stroke-width="1.51"/><path d="M-288,1090L-80,1246L-1,1044Z" fill="#dc9b65" stroke="#dc9b65" stroke-width="1.51"/><path d="M-189,398L-27,650L2,512Z" fill="#ffcb79" stroke="#ffcb79" stroke-width="1.51"/><path d="M-204,710L-51,799L-27,650Z" fill="#feb971" stroke="#feb971" stroke-width="1.51"/><path d="M-204,710L-338,956L-51,799Z" fill="#fab173" stroke="#fab173" stroke-width="1.51"/><path d="M-314,147L-189,398L-48,289Z" fill="#ffe296" stroke="#ffe296" stroke-width="1.51"/><path d="M-288,1090L-228,1344L-80,1246Z" fill="#d09568" stroke="#d09568" stroke-width="1.51"/><path d="M-314,147L-338,956L-204,710Z" fill="#ffc582" stroke="#ffc582" stroke-width="1.51"/><path d="M-314,147L-204,710L-189,398Z" fill="#ffd68c" stroke="#ffd68c" stroke-width="1.51"/><path d="M-288,1090L-338,956L-228,1344Z" fill="#dd9c6f" stroke="#dd9c6f" stroke-width="1.51"/><path d="M-342,28L-338,956L-314,147Z" fill="#ffdb95" stroke="#ffdb95" stroke-width="1.51"/></svg>