<svg xmlns="http://www.w3.org/2000/svg" width="200" height="200"><path d="M115,-102L184,-85L263,-90Z" fill="#ff9f6c" stroke="#ff9f6c" stroke-width="1.51"/><path d="M253,94L252,160L269,42Z" fill="#dd5831" stroke="#dd5831" stroke-width="1.51"/><path d="M263,-90L261,-33L269,42Z" fill="#df8454" stroke="#df8454" stroke-width="1.51"/><path d="M240,259L142,263L298,303Z" fill="#bd0824" stroke="#bd0824" stroke-width="1.51"/><path d="M142,263L54,294L298,303Z" fill="#c82728" stroke="#c82728" stroke-width="1.51"/><path d="M250,222L240,259L298,303Z" fill="#b70026" stroke="#b70026" stroke-width="1.51"/><path d="M269,42L252,160L298,303Z" fill="#cf2727" stroke="#cf2727" stroke-width="1.51"/><path d="M252,160L250,222L298,303Z" fill="#c20824" stroke="#c20824" stroke-width="1.51"/><path d="M263,-90L269,42L298,303Z" fill="#d25a33" stroke="#d25a33" stroke-width="1.51"/><path d="M213,148L252,160L253,94Z" fill="#e44329" stroke="#e44329" stroke-width="1.51"/><path d="M207,-46L192,21L261,-33Z" fill="#f28a4e" stroke="#f28a4e" stroke-width="1.51"/><path d="M207,-46L261,-33L263,-90Z" fill="#ea8e5d" stroke="#ea8e5d" stroke-width="1.51"/><path d="M261,-33L192,21L269,42Z" fill="#e87e44" stroke="#e87e44" stroke-width="1.51"/><path d="M192,21L253,94L269,42Z" fill="#e76e35" stroke="#e76e35" stroke-width="1.51"/><path d="M214,223L250,222L252,160Z" fill="#d81620" stroke="#d81620" stroke-width="1.51"/><path d="M202,115L213,148L253,94Z" fill="#ea502a" stroke="#ea502a" stroke-width="1.51"/><path d="M191,-67L207,-46L263,-90Z" fill="#f49361" stroke="#f49361" stroke-width="1.51"/><path d="M184,-85L191,-67L263,-90Z" fill="#f89765" stroke="#f89765" stroke-width="1.51"/><path d="M213,148L214,223L252,160Z" fill="#e12922" stroke="#e12922" stroke-width="1.51"/><path d="M192,21L202,115L253,94Z" fill="#ee6730" stroke="#ee6730" stroke-width="1.51"/><path d="M214,223L240,259L250,222Z" fill="#cd0c22" stroke="#cd0c22" stroke-width="1.51"/><path d="M213,148L176,209L214,223Z" fill="#e7251e" stroke="#e7251e" stroke-width="1.51"/><path d="M214,223L142,263L240,259Z" fill="#d51622" stroke="#d51622" stroke-width="1.51"/><path d="M192,21L145,45L202,115Z" fill="#f87734" stroke="#f87734" stroke-width="1.51"/><path d="M152,-25L192,21L207,-46Z" fill="#fb924e" stroke="#fb924e" stroke-width="1.51"/><path d="M141,139L176,209L213,148Z" fill="#f43f24" stroke="#f43f24" stroke-width="1.51"/><path d="M176,209L142,263L214,223Z" fill="#e02723" stroke="#e02723" stroke-width="1.51"/><path d="M202,115L145,126L213,148Z" fill="#f55229" stroke="#f55229" stroke-width="1.51"/><path d="M145,126L141,139L213,148Z" fill="#f9532a" stroke="#f9532a" stroke-width="1.51"/><path d="M145,45L145,126L202,115Z" fill="#fb6e32" stroke="#fb6e32" stroke-width="1.51"/><path d="M191,-67L152,-25L207,-46Z" fill="#fd995a" stroke="#fd995a" stroke-width="1.51"/><path d="M141,139L123,193L176,209Z" fill="#f64827" stroke="#f64827" stroke-width="1.51"/><path d="M152,-25L145,45L192,21Z" fill="#ff8f46" stroke="#ff8f46" stroke-width="1.51"/><path d="M184,-85L152,-25L191,-67Z" fill="#ff9e60" stroke="#ff9e60" stroke-width="1.51"/><path d="M115,-102L152,-25L184,-85Z" fill="#ffa769" stroke="#ffa769" stroke-width="1.51"/><path d="M71,271L54,294L142,263Z" fill="#d25933" stroke="#d25933" stroke-width="1.51"/><path d="M123,193L142,263L176,209Z" fill="#ea3b26" stroke="#ea3b26" stroke-width="1.51"/><path d="M145,45L87,57L145,126Z" fill="#fe883b" stroke="#fe883b" stroke-width="1.51"/><path d="M87,57L75,93L145,126Z" fill="#fd8f3c" stroke="#fd8f3c" stroke-width="1.51"/><path d="M107,-15L145,45L152,-25Z" fill="#ffa050" stroke="#ffa050" stroke-width="1.51"/><path d="M115,-102L107,-15L152,-25Z" fill="#ffb065" stroke="#ffb065" stroke-width="1.51"/><path d="M55,234L71,271L123,193Z" fill="#e86231" stroke="#e86231" stroke-width="1.51"/><path d="M81,141L123,193L141,139Z" fill="#fc6630" stroke="#fc6630" stroke-width="1.51"/><path d="M123,193L71,271L142,263Z" fill="#e3522e" stroke="#e3522e" stroke-width="1.51"/><path d="M107,-15L87,57L145,45Z" fill="#ffa049" stroke="#ffa049" stroke-width="1.51"/><path d="M81,141L141,139L145,126Z" fill="#fd6d32" stroke="#fd6d32" stroke-width="1.51"/><path d="M75,93L81,141L145,126Z" fill="#fd8238" stroke="#fd8238" stroke-width="1.51"/><path d="M31,-83L68,-5L107,-15Z" fill="#ffc46a" stroke="#ffc46a" stroke-width="1.51"/><path d="M68,-5L87,57L107,-15Z" fill="#ffb154" stroke="#ffb154" stroke-width="1.51"/><path d="M7,-99L31,-83L115,-102Z" fill="#ffd585" stroke="#ffd585" stroke-width="1.51"/><path d="M31,-83L107,-15L115,-102Z" fill="#ffc474" stroke="#ffc474" stroke-width="1.51"/><path d="M62,173L55,234L123,193Z" fill="#f3692e" stroke="#f3692e" stroke-width="1.51"/><path d="M81,141L62,173L123,193Z" fill="#f97031" stroke="#f97031" stroke-width="1.51"/><path d="M75,93L64,110L81,141Z" fill="#fe8f3d" stroke="#fe8f3d" stroke-width="1.51"/><path d="M32,40L75,93L87,57Z" fill="#fea747" stroke="#fea747" stroke-width="1.51"/><path d="M68,-5L32,40L87,57Z" fill="#ffb451" stroke="#ffb451" stroke-width="1.51"/><path d="M64,110L62,173L81,141Z" fill="#fe8339" stroke="#fe8339" stroke-width="1.51"/><path d="M31,-83L-17,-13L68,-5Z" fill="#ffd375" stroke="#ffd375" stroke-width="1.51"/><path d="M6,86L64,110L75,93Z" fill="#fea144" stroke="#fea144" stroke-width="1.51"/><path d="M32,40L6,86L75,93Z" fill="#fead4c" stroke="#fead4c" stroke-width="1.51"/><path d="M-17,208L55,234L62,173Z" fill="#f47b38" stroke="#f47b38" stroke-width="1.51"/><path d="M-27,163L62,173L64,110Z" fill="#ff8d41" stroke="#ff8d41" stroke-width="1.51"/><path d="M6,86L-27,163L64,110Z" fill="#ffa34e" stroke="#ffa34e" stroke-width="1.51"/><path d="M55,234L54,294L71,271Z" fill="#d96637" stroke="#d96637" stroke-width="1.51"/><path d="M-17,-13L32,40L68,-5Z" fill="#ffc964" stroke="#ffc964" stroke-width="1.51"/><path d="M-48,255L54,294L55,234Z" fill="#df7642" stroke="#df7642" stroke-width="1.51"/><path d="M-27,163L-17,208L62,173Z" fill="#fa8d46" stroke="#fa8d46" stroke-width="1.51"/><path d="M-48,255L-72,291L54,294Z" fill="#d57f52" stroke="#d57f52" stroke-width="1.51"/><path d="M-17,208L-48,255L55,234Z" fill="#ec8549" stroke="#ec8549" stroke-width="1.51"/><path d="M7,-99L-17,-13L31,-83Z" fill="#ffe089" stroke="#ffe089" stroke-width="1.51"/><path d="M-28,55L6,86L32,40Z" fill="#ffbe5c" stroke="#ffbe5c" stroke-width="1.51"/><path d="M-17,-13L-28,55L32,40Z" fill="#ffcd69" stroke="#ffcd69" stroke-width="1.51"/><path d="M-82,138L-27,163L6,86Z" fill="#ffab5f" stroke="#ffab5f" stroke-width="1.51"/><path d="M-28,55L-82,138L6,86Z" fill="#ffbc66" stroke="#ffbc66" stroke-width="1.51"/><path d="M-92,-88L-17,-13L7,-99Z" fill="#ffea9b" stroke="#ffea9b" stroke-width="1.51"/><path d="M-93,82L-82,138L-28,55Z" fill="#ffc273" stroke="#ffc273" stroke-width="1.51"/><path d="M-73,4L-28,55L-17,-13Z" fill="#ffd87c" stroke="#ffd87c" stroke-width="1.51"/><path d="M-92,-88L-73,4L-17,-13Z" fill="#ffe898" stroke="#ffe898" stroke-width="1.51"/><path d="M-27,163L-71,190L-17,208Z" fill="#fc9657" stroke="#fc9657" stroke-width="1.51"/><path d="M-71,190L-48,255L-17,208Z" fill="#f49057" stroke="#f49057" stroke-width="1.51"/><path d="M-73,4L-101,64L-28,55Z" fill="#ffd37d" stroke="#ffd37d" stroke-width="1.51"/><path d="M-82,138L-71,190L-27,163Z" fill="#ffa162" stroke="#ffa162" stroke-width="1.51"/><path d="M-101,64L-93,82L-28,55Z" fill="#ffcc7a" stroke="#ffcc7a" stroke-width="1.51"/><path d="M-71,190L-72,291L-48,255Z" fill="#ea8e60" stroke="#ea8e60" stroke-width="1.51"/><path d="M-82,138L-101,64L-72,291Z" fill="#ffa56d" stroke="#ffa56d" stroke-width="1.51"/><path d="M-82,138L-72,291L-71,190Z" fill="#fa9762" stroke="#fa9762" stroke-width="1.51"/><path d="M-92,-88L-101,64L-73,4Z" fill="#ffe999" stroke="#ffe999" stroke-width="1.51"/><path d="M-93,82L-101,64L-82,138Z" fill="#ffc67d" stroke="#ffc67d" stroke-width="1.51"/></svg>